{
  "asset": {
    "version": "2.0",
    "generator": "Microsoft GLTF Exporter 2.4.2.20"
  },
  "accessors": [
    {
      "bufferView": 0,
      "componentType": 5123,
      "count": 26754,
      "type": "SCALAR",
      "byteOffset": 0
    },
    {
      "bufferView": 1,
      "componentType": 5126,
      "count": 8976,
      "type": "VEC3",
      "max": [
        1134.0653076171875,
        135.92236328125,
        0
      ],
      "min": [
        10.721826553344727,
        -39.00381088256836,
        -15
      ],
      "byteOffset": 0
    },
    {
      "bufferView": 2,
      "componentType": 5126,
      "count": 8976,
      "type": "VEC3",
      "byteOffset": 0
    }
  ],
  "bufferViews": [
    {
      "buffer": 0,
      "byteOffset": 0,
      "byteLength": 53508,
      "target": 34963
    },
    {
      "buffer": 0,
      "byteOffset": 53512,
      "byteLength": 107712,
      "target": 34962,
      "byteStride": 12
    },
    {
      "buffer": 0,
      "byteOffset": 161224,
      "byteLength": 107712,
      "target": 34962,
      "byteStride": 12
    },
    {
      "buffer": 0,
      "byteOffset": 268936,
      "byteLength": 163
    },
    {
      "buffer": 0,
      "byteOffset": 269104,
      "byteLength": 163
    },
    {
      "buffer": 0,
      "byteOffset": 269272,
      "byteLength": 163
    },
    {
      "buffer": 0,
      "byteOffset": 269440,
      "byteLength": 163
    }
  ],
  "buffers": [
    {
      "name": "ja",
      "byteLength": 269608,
      "uri": "data:application/octet-stream;base64,"
    }
  ],
  "images": [
    {
      "bufferView": 3,
      "mimeType": "image/png"
    },
    {
      "bufferView": 4,
      "mimeType": "image/png"
    },
    {
      "bufferView": 5,
      "mimeType": "image/png"
    },
    {
      "bufferView": 6,
      "mimeType": "image/png"
    }
  ],
  "materials": [
    {
      "pbrMetallicRoughness": {
        "baseColorTexture": {
          "index": 2,
          "texCoord": 0
        },
        "metallicRoughnessTexture": {
          "index": 3,
          "texCoord": 0
        },
        "baseColorFactor": [
          1,
          1,
          1,
          1
        ],
        "metallicFactor": 1,
        "roughnessFactor": 1
      },
      "name": "58",
      "doubleSided": true,
      "extensions": {
        "KHR_materials_pbrSpecularGlossiness": {
          "diffuseTexture": {
            "index": 0
          },
          "specularGlossinessTexture": {
            "index": 1,
            "texCoord": 0
          },
          "diffuseFactor": [
            1,
            1,
            1,
            1
          ],
          "specularFactor": [
            1,
            1,
            1
          ],
          "glossinessFactor": 1
        }
      },
      "extras": {
        "MSFT_sRGBFactors": false
      },
      "emissiveFactor": [
        0,
        0,
        0
      ],
      "alphaMode": "OPAQUE"
    }
  ],
  "meshes": [
    {
      "name": "mesh_id59",
      "primitives": [
        {
          "attributes": {
            "POSITION": 1,
            "NORMAL": 2
          },
          "indices": 0,
          "material": 0,
          "mode": 4
        }
      ]
    }
  ],
  "nodes": [
    {
      "translation": [
        -572.3935546875,
        -48.459266662597656,
        7.5
      ],
      "mesh": 0,
      "rotation": [
        0,
        0,
        0,
        1
      ],
      "scale": [
        1,
        1,
        1
      ]
    },
    {
      "children": [
        2
      ],
      "name": "root"
    },
    {
      "children": [
        0
      ],
      "translation": [
        0.07255207747220993,
        0.025586403906345367,
        0.2499365359544754
      ],
      "rotation": [
        4.820866816857006e-9,
        0,
        0,
        1
      ],
      "scale": [
        0.001500000013038516,
        0.001500000013038516,
        0.001500000013038516
      ],
      "name": "node_id51"
    }
  ],
  "samplers": [
    {
      "minFilter": 9985,
      "wrapS": 10497,
      "wrapT": 10497
    }
  ],
  "scenes": [
    {
      "nodes": [
        1
      ]
    }
  ],
  "textures": [
    {
      "name": "texture597",
      "sampler": 0,
      "source": 0
    },
    {
      "name": "texture598",
      "sampler": 0,
      "source": 1
    },
    {
      "name": "58_bc",
      "sampler": 0,
      "source": 2
    },
    {
      "name": "58_mr",
      "sampler": 0,
      "source": 3
    }
  ],
  "scene": 0,
  "extensionsUsed": [
    "KHR_materials_pbrSpecularGlossiness"
  ]
}
